<svg width="497" height="371" viewBox="0 0 497 371" fill="none" xmlns="http://www.w3.org/2000/svg">
  <path
    d="M43.9024 139.892L41.918 112.294C28.9186 105.797 14.5295 102.57 0 102.895C20.441 118.693 18.8037 150.269 32.9602 171.878C37.4271 178.584 43.3459 184.199 50.2782 188.306C57.2104 192.414 64.9782 194.909 73.0061 195.607L90.0179 205.393C91.9639 192.533 91.0984 179.404 87.481 166.91C83.8637 154.416 77.5804 142.855 69.0641 133.023C64.2318 127.555 58.7301 122.717 52.6888 118.623C48.9703 129.298 43.9024 139.892 43.9024 139.892Z"
    fill="#F2F2F2" />
  <path
    d="M289.018 160.709C333.126 160.709 368.882 124.957 368.882 80.8548C368.882 36.7523 333.126 1.00024 289.018 1.00024C244.91 1.00024 209.154 36.7523 209.154 80.8548C209.154 124.957 244.91 160.709 289.018 160.709Z"
    fill="white" />
  <path
    d="M292.714 89.0004C307.097 89.0004 318.756 77.3422 318.756 62.9612C318.756 48.5802 307.097 36.9221 292.714 36.9221C278.331 36.9221 266.672 48.5802 266.672 62.9612C266.672 77.3422 278.331 89.0004 292.714 89.0004Z"
    fill="#FFB8B8" />
  <path
    d="M315.644 45.7592C315.644 45.7592 322.424 32.7985 307.507 31.6203C307.507 31.6203 294.79 20.0856 281.827 29.5116C281.827 29.5116 274.757 29.5116 270.891 37.5115C270.891 37.5115 265.33 35.4028 264.108 41.0463C264.108 41.0463 260.039 52.8287 264.108 63.433C268.177 74.0372 269.528 75.2154 269.528 75.2154C269.528 75.2154 266.674 62.0562 282.948 60.8779C299.223 59.6997 314.154 49.5054 315.51 62.4661C316.866 75.4268 318.357 69.572 318.357 69.572C318.357 69.572 331.239 51.0614 315.644 45.7592Z"
    fill="#2F2E41" />
  <path
    d="M349.079 133.953C335.243 149.695 315.771 159.364 294.866 160.875C273.961 162.386 253.3 155.616 237.344 142.027L244.194 122.915C245.742 119.521 248.185 116.612 251.261 114.5C254.337 112.388 257.929 111.153 261.654 110.927L266.012 110.66L276.403 101.699C276.403 101.699 304.402 100.699 303.987 100.22L320.947 110.42L320.932 110.35L327.599 110.758C331.324 110.983 334.917 112.217 337.993 114.329C341.069 116.442 343.512 119.351 345.059 122.746L349.079 133.953Z"
    fill="#5A0175" />
  <path
    d="M289.018 161.71C273.025 161.71 257.39 156.967 244.092 148.083C230.794 139.199 220.429 126.571 214.309 111.797C208.189 97.0223 206.587 80.7651 209.707 65.0808C212.828 49.3965 220.529 34.9896 231.838 23.6818C243.147 12.3741 257.556 4.67344 273.242 1.55364C288.928 -1.56616 305.188 0.0350278 319.964 6.15473C334.74 12.2744 347.369 22.6378 356.255 35.9343C365.14 49.2308 369.883 64.8632 369.883 80.8548C369.858 102.291 361.331 122.843 346.171 138.001C331.011 153.159 310.457 161.685 289.018 161.71ZM289.018 2.00071C273.42 2.0007 258.173 6.62541 245.204 15.29C232.235 23.9546 222.127 36.2699 216.158 50.6786C210.189 65.0873 208.627 80.9422 211.67 96.2384C214.713 111.535 222.224 125.585 233.253 136.613C244.282 147.641 258.335 155.151 273.633 158.194C288.931 161.236 304.787 159.675 319.198 153.706C333.608 147.738 345.925 137.631 354.591 124.664C363.256 111.696 367.882 96.4506 367.882 80.8548C367.858 59.9487 359.542 39.9056 344.757 25.1227C329.972 10.3399 309.927 2.02442 289.018 2.00071Z"
    fill="#3F3D56" />
  <path
    d="M102.61 286.751C146.717 286.751 182.474 250.999 182.474 206.897C182.474 162.794 146.717 127.042 102.61 127.042C58.5019 127.042 22.7454 162.794 22.7454 206.897C22.7454 250.999 58.5019 286.751 102.61 286.751Z"
    fill="white" />
  <path
    d="M65.5933 180.92C68.8957 170.397 76.4053 160.746 86.791 157.188C97.1773 153.631 112.385 159.05 120.194 166.831C134.476 181.063 137.962 229.958 128.149 245.409C126.197 245.306 119.462 245.229 117.487 245.155L114.692 235.842V245.063C111.545 244.966 108.373 244.899 105.177 244.862C94.4601 244.729 84.212 240.447 76.5874 232.915C68.9627 225.384 64.5552 215.19 64.2916 204.477C64.0359 194.228 64.2919 185.067 65.5933 180.92Z"
    fill="#2F2E41" />
  <path
    d="M101.425 215.797C113.996 215.797 124.186 205.608 124.186 193.039C124.186 180.47 113.996 170.281 101.425 170.281C88.8548 170.281 78.6644 180.47 78.6644 193.039C78.6644 205.608 88.8548 215.797 101.425 215.797Z"
    fill="#9E616A" />
  <path
    d="M81.7819 173.052L107.989 159.931C113.347 162.345 117.961 166.148 121.353 170.946C124.746 175.744 126.792 181.363 127.281 187.218L127.934 195.042L116.96 192.248L115.758 182.245L113.894 191.468L108.83 190.18L108.878 174.649L103.81 190.169L85.7224 186.013L81.7819 173.052Z"
    fill="#2F2E41" />
  <path
    d="M161.874 259.741C148.038 275.483 128.566 285.153 107.661 286.663C86.7557 288.174 66.0951 281.404 50.1389 267.816L56.989 248.704C58.5371 245.309 60.98 242.4 64.0558 240.288C67.1316 238.176 70.7244 236.941 74.4488 236.716L78.8067 236.448L89.198 227.487C89.198 227.487 117.197 226.487 116.782 226.009L133.742 236.209L133.727 236.138L140.394 236.547C144.119 236.771 147.712 238.006 150.788 240.118C153.864 242.23 156.307 245.14 157.854 248.535L161.874 259.741Z"
    fill="#5A0175" />
  <path
    d="M102.61 287.752C86.6164 287.752 70.982 283.01 57.6839 274.125C44.3858 265.241 34.0212 252.613 27.9008 237.839C21.7803 223.064 20.179 206.807 23.2991 191.123C26.4193 175.439 34.1209 161.032 45.43 149.724C56.7391 138.416 71.1478 130.716 86.834 127.596C102.52 124.476 118.779 126.077 133.555 132.197C148.331 138.317 160.961 148.68 169.846 161.976C178.732 175.273 183.474 190.905 183.474 206.897C183.45 228.333 174.923 248.885 159.763 264.043C144.603 279.201 124.049 287.727 102.61 287.752ZM102.61 128.043C87.0121 128.043 71.7647 132.668 58.7956 141.332C45.8265 149.997 35.7184 162.312 29.7494 176.721C23.7804 191.129 22.2186 206.984 25.2616 222.281C28.3046 237.577 35.8156 251.627 46.8449 262.655C57.8741 273.683 71.9263 281.193 87.2243 284.236C102.522 287.278 118.379 285.717 132.79 279.749C147.2 273.78 159.517 263.673 168.183 250.706C176.848 237.738 181.473 222.493 181.473 206.897C181.45 185.991 173.133 165.948 158.349 151.165C143.564 136.382 123.519 128.067 102.61 128.043Z"
    fill="#3F3D56" />
  <path
    d="M222.848 370.894H121.136C118.411 370.891 115.797 369.807 113.87 367.88C111.942 365.953 110.858 363.34 110.855 360.614V297.977C110.858 295.251 111.942 292.638 113.87 290.711C115.797 288.784 118.411 287.7 121.136 287.697H222.848C225.574 287.7 228.187 288.784 230.115 290.711C232.042 292.638 233.126 295.251 233.129 297.977V360.614C233.126 363.339 232.042 365.953 230.115 367.88C228.187 369.807 225.574 370.891 222.848 370.894Z"
    fill="#E6E6E6" />
  <path
    d="M182.436 362.826H128.286C125.733 362.823 123.286 361.808 121.48 360.003C119.675 358.198 118.66 355.751 118.657 353.198V305.392C118.66 302.84 119.675 300.392 121.48 298.588C123.286 296.783 125.733 295.767 128.286 295.765H215.699C218.252 295.767 220.699 296.783 222.504 298.588C224.309 300.393 225.325 302.84 225.328 305.392V319.941C225.315 331.311 220.792 342.211 212.751 350.251C204.71 358.291 193.808 362.813 182.436 362.826Z"
    fill="white" />
  <path
    d="M206.979 321.942H137.006C136.401 321.942 135.82 321.702 135.392 321.274C134.964 320.846 134.724 320.265 134.724 319.66C134.724 319.055 134.964 318.475 135.392 318.047C135.82 317.619 136.401 317.379 137.006 317.379H206.979C207.584 317.379 208.164 317.619 208.592 318.047C209.02 318.475 209.261 319.055 209.261 319.66C209.261 320.265 209.02 320.846 208.592 321.274C208.164 321.702 207.584 321.942 206.979 321.942Z"
    fill="#5A0175" />
  <path
    d="M147.952 330.958H137.006C136.401 330.958 135.82 330.718 135.392 330.29C134.964 329.862 134.724 329.282 134.724 328.677C134.724 328.071 134.964 327.491 135.392 327.063C135.82 326.635 136.401 326.395 137.006 326.395H147.952C148.557 326.395 149.137 326.635 149.565 327.063C149.993 327.491 150.234 328.071 150.234 328.677C150.234 329.282 149.993 329.862 149.565 330.29C149.137 330.718 148.557 330.958 147.952 330.958Z"
    fill="#5A0175" />
  <path
    d="M167.337 339.975H137.006C136.402 339.974 135.822 339.733 135.395 339.305C134.968 338.877 134.729 338.297 134.729 337.693C134.729 337.089 134.968 336.509 135.395 336.081C135.822 335.653 136.402 335.412 137.006 335.411H167.337C167.942 335.412 168.521 335.653 168.948 336.081C169.375 336.509 169.615 337.089 169.615 337.693C169.615 338.297 169.375 338.877 168.948 339.305C168.521 339.733 167.942 339.974 167.337 339.975Z"
    fill="#5A0175" />
  <path
    d="M107.306 307.962C119.189 307.962 128.822 298.331 128.822 286.449C128.822 274.568 119.189 264.936 107.306 264.936C95.4227 264.936 85.7897 274.568 85.7897 286.449C85.7897 298.331 95.4227 307.962 107.306 307.962Z"
    fill="#3F3D56" />
  <path
    d="M486.968 86.799H385.257C382.531 86.7959 379.918 85.7118 377.99 83.7846C376.063 81.8573 374.979 79.2443 374.976 76.5188V13.8816C374.979 11.1561 376.063 8.54309 377.99 6.61584C379.918 4.68859 382.531 3.6045 385.257 3.60141H486.968C489.694 3.60449 492.308 4.68858 494.235 6.61583C496.163 8.54307 497.247 11.1561 497.25 13.8816V76.5188C497.247 79.2443 496.163 81.8573 494.235 83.7846C492.308 85.7119 489.694 86.7959 486.968 86.799Z"
    fill="#E6E6E6" />
  <path
    d="M446.557 78.7309H392.407C389.854 78.7281 387.406 77.7128 385.601 75.9079C383.796 74.103 382.78 71.6558 382.777 69.1031V21.2971C382.78 18.7445 383.796 16.2973 385.601 14.4924C387.406 12.6874 389.854 11.6722 392.407 11.6694H479.819C482.372 11.6722 484.82 12.6875 486.625 14.4924C488.43 16.2973 489.445 18.7445 489.448 21.2971V35.8454C489.435 47.2155 484.912 58.1161 476.871 66.1559C468.83 74.1957 457.928 78.7181 446.557 78.7309Z"
    fill="white" />
  <path
    d="M471.099 37.8469H401.127C400.521 37.8469 399.941 37.6065 399.513 37.1785C399.085 36.7506 398.844 36.1702 398.844 35.5651C398.844 34.9599 399.085 34.3795 399.513 33.9516C399.941 33.5237 400.521 33.2833 401.127 33.2833H471.099C471.704 33.2833 472.285 33.5237 472.713 33.9516C473.141 34.3795 473.381 34.9599 473.381 35.5651C473.381 36.1702 473.141 36.7506 472.713 37.1785C472.285 37.6065 471.704 37.8469 471.099 37.8469Z"
    fill="#5A0175" />
  <path
    d="M412.072 46.8632H401.127C400.521 46.8632 399.941 46.6228 399.513 46.1949C399.085 45.7669 398.844 45.1865 398.844 44.5813C398.844 43.9761 399.085 43.3957 399.513 42.9678C399.941 42.5399 400.521 42.2995 401.127 42.2995H412.072C412.677 42.2995 413.258 42.5399 413.686 42.9678C414.114 43.3957 414.354 43.9761 414.354 44.5813C414.354 45.1865 414.114 45.7669 413.686 46.1949C413.258 46.6228 412.677 46.8632 412.072 46.8632Z"
    fill="#5A0175" />
  <path
    d="M431.458 55.8796H401.126C400.522 55.8783 399.943 55.6373 399.516 55.2095C399.089 54.7817 398.849 54.2021 398.849 53.5977C398.849 52.9933 399.089 52.4136 399.516 51.9859C399.943 51.5581 400.522 51.3171 401.126 51.3158H431.458C432.063 51.3158 432.644 51.5562 433.072 51.9842C433.5 52.4121 433.74 52.9925 433.74 53.5977C433.74 54.2029 433.5 54.7833 433.072 55.2112C432.644 55.6392 432.063 55.8796 431.458 55.8796Z"
    fill="#5A0175" />
  <path
    d="M371.426 98.8924C383.309 98.8924 392.942 89.2606 392.942 77.379C392.942 65.4975 383.309 55.8657 371.426 55.8657C359.543 55.8657 349.91 65.4975 349.91 77.379C349.91 89.2606 359.543 98.8924 371.426 98.8924Z"
    fill="#3F3D56" />
</svg>
  